PathFileType	4	(X/Y/Z)	c:\Git\powerlifing_model_clean\simulations\HC835B\Session1\HC835B_OGR_0004\marker_experimental.trc
DataRate	CameraRate	NumFrames	NumMarkers	Units	OrigDataRate	OrigDataStartFrame	OrigNumFrames
240.000000	240.000000	4	38	mm	240.000000	189	217
Frame#	Time	RPSI			LPSI			RASI			LASI			RTH1			RTH2			RTH3			RTH4			RSK1			RSK2			RSK3			RSK4			RCAL1			RCAL2			RCAL3			RST			RPT			RTN			RFMB			RSMB			RVMB			RFMH			RSMH			RVMH			RPM			LTH1			LTH2			LTH3			LTH4			LSK1			LSK2			LSK3			LSK4			LCAL1			LCAL2			LCAL3			LFMH			LVMH			
		X1	Y1	Z1	X2	Y2	Z2	X3	Y3	Z3	X4	Y4	Z4	X5	Y5	Z5	X6	Y6	Z6	X7	Y7	Z7	X8	Y8	Z8	X9	Y9	Z9	X10	Y10	Z10	X11	Y11	Z11	X12	Y12	Z12	X13	Y13	Z13	X14	Y14	Z14	X15	Y15	Z15	X16	Y16	Z16	X17	Y17	Z17	X18	Y18	Z18	X19	Y19	Z19	X20	Y20	Z20	X21	Y21	Z21	X22	Y22	Z22	X23	Y23	Z23	X24	Y24	Z24	X25	Y25	Z25	X26	Y26	Z26	X27	Y27	Z27	X28	Y28	Z28	X29	Y29	Z29	X30	Y30	Z30	X31	Y31	Z31	X32	Y32	Z32	X33	Y33	Z33	X34	Y34	Z34	X35	Y35	Z35	X36	Y36	Z36	X37	Y37	Z37	X38	Y38	Z38	

190	0.7875	505.8280639648439	1207.241821289063	-2199.250244140625	393.5247192382814	1205.209594726563	-2205.078857421875	576.3154907226564	1137.027465820313	-2385.32421875	344.8494262695313	1119.498901367188	-2395.74267578125	642.4881591796876	852.8862304687502	-2376.756103515625	623.1844482421876	859.8901977539065	-2434.2763671875	629.0390014648439	782.416198730469	-2421.81298828125	599.7028198242189	787.1712646484377	-2472.375	569.9878540039064	337.1459350585938	-2450.130859375	576.5875244140626	334.3483276367188	-2511.4814453125	564.1683959960939	285.2900390625001	-2477.154296875	560.1495971679689	285.0784606933594	-2537.273193359375	491.5086975097657	129.789779663086	-2456.897705078125	451.154266357422	106.7206192016602	-2476.68017578125	510.1697387695314	84.98891448974611	-2468.91357421875	454.9402465820314	137.1839599609375	-2540.5546875	544.4072265625001	97.65591430664065	-2522.39404296875	478.6538085937501	160.9063262939453	-2591.75830078125	481.6396789550782	146.3729705810547	-2625.447021484375	533.2149047851564	154.103500366211	-2625.9833984375	551.0769653320314	77.03390502929689	-2570.682373046875	473.8639221191407	127.3194961547852	-2683.4921875	531.3284912109376	126.8208084106446	-2690.397705078125	572.8624877929689	76.53684997558595	-2647.7158203125	528.8682861328126	137.0289611816407	-2744.933349609375	280.9840393066407	856.4064941406252	-2210.056396484375	293.3974609375001	824.4639892578127	-2260.374267578125	292.8228149414063	771.7034912109377	-2197.388427734375	318.4687500000001	742.7414550781251	-2244.08447265625	331.1577148437501	507.6802062988282	-1839.22998046875	324.4390258789063	456.7599182128907	-1855.096557617188	333.4424133300782	461.8388061523439	-1806.013305664063	342.3807678222657	409.3145751953126	-1826.223022460938	397.2306518554689	435.1487121582032	-1680.861328125	378.1743469238282	422.9338684082032	-1638.518310546875	435.0097961425782	424.3385620117189	-1653.597534179688	441.8214416503907	213.2403869628907	-1713.781005859375	349.5761718750001	231.4096832275391	-1653.406005859375	
191	0.7916666666666666	506.1080322265626	1204.956298828125	-2213.20654296875	393.8746032714845	1203.571044921875	-2219.05615234375	576.2963256835939	1134.583618164063	-2399.267578125	344.4462585449219	1118.84716796875	-2409.84228515625	643.2174682617189	849.7192993164065	-2388.33251953125	623.5979003906251	856.1152954101565	-2445.815673828125	629.3518066406251	778.702575683594	-2432.458984375	599.7615966796876	783.0855102539065	-2483.025390625	569.2153320312501	333.8699645996094	-2466.064453125	576.0725097656251	331.9780273437501	-2527.390380859375	563.5650024414064	282.3507690429688	-2493.91259765625	559.8012084960939	283.2000427246094	-2554.047119140625	492.0399475097657	125.9318771362305	-2476.66162109375	451.3555908203126	103.3713302612305	-2496.28466796875	510.665496826172	81.32698059082033	-2490.012939453125	454.5642089843751	135.1810760498047	-2559.615478515625	544.2214355468751	95.22219085693361	-2543.567626953125	477.3956298828126	160.4254913330078	-2611.129638671875	479.5142822265626	145.8233642578125	-2644.02392578125	532.2459716796876	154.6682281494141	-2645.85302734375	550.3453369140626	75.74129486083986	-2592.4150390625	471.6326904296876	128.3966674804688	-2702.602783203125	528.9710083007814	128.4499816894532	-2710.6162109375	571.1661987304689	77.15643310546876	-2669.67431640625	525.8656005859376	140.3152160644532	-2764.697021484375	280.8666992187501	854.0649414062502	-2225.90380859375	293.2586364746094	822.5127563476565	-2276.413818359375	292.4787902832032	769.2634887695315	-2213.773193359375	318.1445007324219	740.5437011718751	-2260.59326171875	331.3224487304688	512.7713012695314	-1852.797607421875	323.8198242187501	461.5721740722657	-1867.16796875	333.2353820800782	467.8114624023439	-1818.380615234375	341.4974060058594	414.5147094726564	-1837.203735351563	397.4222106933595	443.9907531738282	-1692.7939453125	378.6673278808594	432.9595642089845	-1649.990356445313	435.3947753906251	433.546844482422	-1665.699340820313	440.2116088867189	221.1042175292969	-1720.776245117188	348.6897583007813	241.3909454345704	-1659.939086914063	
192	0.7958333333333333	506.3756103515626	1202.408081054688	-2226.923828125	394.2221679687501	1201.706665039063	-2232.955078125	576.3264770507814	1131.953002929688	-2413.33642578125	343.9756164550782	1117.945068359375	-2423.9140625	644.1784057617189	846.4172973632815	-2400.106689453125	624.1580200195314	852.4544677734377	-2457.504150390625	629.5791625976564	775.2198486328127	-2443.383544921875	600.0304565429689	779.2564086914065	-2494.0390625	568.3132934570314	330.5301208496094	-2481.349365234375	575.7119140625001	329.6689758300782	-2542.670166015625	562.9606933593751	279.4995727539063	-2509.963623046875	559.5876464843751	281.1848449707032	-2570.130859375	493.0123901367189	121.9997100830078	-2495.316650390625	451.9942932128907	99.86027526855472	-2514.8857421875	511.4362182617189	77.8291473388672	-2510.04443359375	453.4412231445314	132.63232421875	-2577.7158203125	544.2575073242189	93.00231933593751	-2563.76953125	476.5713195800782	157.7551727294922	-2628.42919921875	477.970672607422	145.613525390625	-2662.059814453125	530.6198120117189	154.4917144775391	-2664.43115234375	549.6848144531251	74.52013397216798	-2613.091064453125	469.2698669433595	129.5240173339844	-2720.697021484375	527.2257080078126	130.5518035888672	-2729.318115234375	569.3085327148439	77.63401031494142	-2690.61962890625	522.0714111328126	142.9890747070313	-2783.424072265625	280.6701049804688	851.6077880859377	-2241.714111328125	292.9281005859376	820.3197021484377	-2292.412109375	291.9449462890626	766.7556762695314	-2230.22314453125	317.4539794921876	738.1849365234376	-2277.1806640625	331.4373474121094	517.6927490234376	-1866.761352539063	323.1863403320313	466.2226562500001	-1879.758056640625	333.0892333984376	473.7168273925782	-1831.113891601563	340.7013854980469	419.7351989746095	-1848.6044921875	397.7079162597657	452.7593688964845	-1705.279418945313	379.2261352539063	442.9176635742189	-1662.056640625	435.8430786132814	442.7355041503907	-1678.302490234375	438.4836425781251	228.9085083007813	-1728.104370117188	347.6705932617188	251.3967285156251	-1667.0703125	
193	0.8	506.8156738281251	1199.50634765625	-2240.58740234375	394.6321411132814	1199.513671875	-2246.799560546875	576.1944580078126	1129.425659179688	-2427.56591796875	343.5120849609376	1116.866088867188	-2437.965576171875	644.5723266601564	843.3293457031252	-2411.9091796875	624.8435058593751	849.0122070312502	-2469.424560546875	629.5905761718751	771.876647949219	-2454.588134765625	600.4417724609376	775.7231445312502	-2505.470458984375	567.3907470703126	327.4006652832032	-2496.147705078125	575.2631835937501	327.1552429199219	-2557.364990234375	562.3488769531251	276.6526794433594	-2525.408203125	559.3878173828126	279.0589294433594	-2585.53515625	493.9705810546876	118.169303894043	-2513.0361328125	452.7462768554689	96.30719757080081	-2532.41259765625	512.3717651367189	74.50730895996095	-2529.001708984375	453.228240966797	130.13525390625	-2594.85498046875	544.2932739257814	90.71314239501955	-2582.875244140625	475.5548095703126	156.9532012939453	-2645.6689453125	476.2745361328126	145.0733642578125	-2678.982177734375	528.9382324218751	154.175033569336	-2682.076416015625	549.0712280273439	73.2823944091797	-2632.664794921875	466.7532653808595	129.9842071533203	-2737.6337890625	524.5590820312501	131.504379272461	-2747.3984375	567.5081787109376	77.98596191406251	-2710.333984375	518.6176757812501	145.2503967285157	-2800.97509765625	280.3099365234376	849.0253906250002	-2257.517578125	292.3943786621094	817.9700927734377	-2308.4228515625	291.2500305175782	763.9580078125001	-2246.5361328125	316.4764099121094	735.6323242187501	-2293.818359375	331.5135192871094	522.4055786132814	-1881.225708007813	322.7030334472657	470.7502746582032	-1892.69677734375	332.9465332031251	479.4301757812501	-1844.379638671875	339.6162109375001	425.8158569335939	-1860.339111328125	398.1416931152345	461.3219299316407	-1718.318115234375	379.8071289062501	452.8648986816407	-1674.708740234375	436.3255920410157	451.7750549316407	-1691.303466796875	437.1652221679689	236.8664703369141	-1736.068237304688	346.6269226074219	261.4941406250001	-1674.619995117188	
